<?xml version="1.0" encoding="utf-8"?>
<!-- Generator: Adobe Illustrator 27.6.1, SVG Export Plug-In . SVG Version: 6.00 Build 0)  -->
<svg version="1.1" id="Layer_1" xmlns="http://www.w3.org/2000/svg" xmlns:xlink="http://www.w3.org/1999/xlink" x="0px" y="0px"
	 viewBox="0 0 100 100" style="enable-background:new 0 0 100 100;" xml:space="preserve">
<g>
	<g>
		<g>
			<path d="M18.4,50c0-2,0.2-3.9,0.5-5.7H4.4c-0.2,1.9-0.4,3.8-0.4,5.7c0,25.4,20.6,45.9,45.9,45.9c1.9,0,3.9-0.1,5.7-0.4V81
				c-1.9,0.3-3.8,0.5-5.7,0.5C32.6,81.6,18.4,67.4,18.4,50z"/>
		</g>
		<g>
			<path d="M50,4.1C30.7,4.1,14.2,16,7.4,32.8h16.1c5.6-8.6,15.4-14.3,26.4-14.3c17.4,0,31.6,14.1,31.6,31.6
				c0,11.1-5.7,20.8-14.3,26.4v16.1C84,85.8,95.9,69.3,95.9,50C95.9,24.6,75.4,4.1,50,4.1z"/>
		</g>
	</g>
</g>
</svg>
